# AST/ASF file generated using VICON BodyLanguage
# -----------------------------------------------
:version 1.10
:name VICON
:units
  mass 1.0
  length 0.45
  angle deg
:documentation
   .ast/.asf automatically generated from VICON data using
   VICON BodyBuilder and BodyLanguage model FoxedUp or BRILLIANT.MOD
:root
   order TX TY TZ RX RY RZ
   axis XYZ
   position 0 0 0  
   orientation 0 0 0 
:bonedata
  begin
     id 1 
     name lhipjoint
     direction 0.635376 -0.686425 0.353719 
     length 2.47244 
     axis 0 0 0  XYZ
  end
  begin
     id 2 
     name lfemur
     direction 0.34202 -0.939693 0  
     length 7.25268  
     axis 0 0 20  XYZ
    dof rx ry rz
    limits (-160.0 20.0)
           (-70.0 70.0)
           (-60.0 70.0)
  end
  begin
     id 3 
     name ltibia
     direction 0.34202 -0.939693 0   
     length 7.6767   
     axis 0 0 20   XYZ
    dof rx
    limits (-10.0 170.0)
  end
  begin
     id 4 
     name lfoot
     direction 0.0803374 -0.220725 0.972022   
     length 2.22945   
     axis -90 7.62852e-016 20   XYZ
    dof rx rz
    limits (-45.0 90.0)
           (-70.0 20.0)
  end
  begin
     id 5 
     name ltoes
     direction 1.53579e-011 -4.21994e-011 1   
     length 1.11848   
     axis -90 7.62852e-016 20   XYZ
    dof rx
    limits (-90.0 20.0)
  end
  begin
     id 6 
     name rhipjoint
     direction -0.664428 -0.664335 0.342336   
     length 2.55466  
     axis 0 0 0  XYZ 
  end
  begin
     id 7 
     name rfemur
     direction -0.34202 -0.939693 0   
     length 6.83172   
     axis 0 0 -20   XYZ
    dof rx ry rz
    limits (-160.0 20.0)
           (-70.0 70.0)
           (-70.0 60.0)
  end
  begin
     id 8 
     name rtibia
     direction -0.34202 -0.939693 0   
     length 7.62692   
     axis 0 0 -20   XYZ
    dof rx
    limits (-10.0 170.0)
 end
 begin
     id 9 
     name rfoot
     direction -0.0949276 -0.260811 0.960711   
     length 2.19684  
     axis -90 -7.62852e-016 -20   XYZ
    dof rx rz
    limits (-45.0 90.0)
           (-20.0 70.0)
  end
  begin
     id 10 
     name rtoes
     direction -1.53543e-011 -4.2183e-011 1   
     length 1.09848   
     axis -90 -7.62852e-016 -20   XYZ
    dof rx
    limits (-90.0 20.0)
  end
  begin
     id 11 
     name lowerback
     direction 0.0118782 0.999815 -0.0151555   
     length 2.15772   
     axis 0 0 0   XYZ
    dof rx ry rz
    limits (-20.0 45.0)
           (-30.0 30.0)
           (-30.0 30.0)
  end
  begin
     id 12 
     name upperback
     direction 0.00130825 0.999065 0.0432113   
     length 2.14863   
     axis 0 0 0   XYZ
    dof rx ry rz
    limits (-20.0 45.0)
           (-30.0 30.0)
           (-30.0 30.0)
  end
  begin
     id 13 
     name thorax
     direction -0.00347005 0.998773 0.0494011   
     length 2.14936   
     axis 0 0 0   XYZ
    dof rx ry rz
    limits (-20.0 45.0)
           (-30.0 30.0)
           (-30.0 30.0)
  end
  begin
     id 14 
     name lowerneck
     direction -0.0262159 0.99424 0.103921   
     length 1.69373   
     axis 0 0 0   XYZ
    dof rx ry rz
    limits (-20.0 45.0)
           (-30.0 30.0)
           (-30.0 30.0)
  end
  begin
     id 15 
     name upperneck
     direction 0.0353511 0.977394 -0.20845   
     length 1.70857   
     axis 0 0 0   XYZ
    dof rx ry rz
    limits (-20.0 45.0)
           (-30.0 30.0)
           (-30.0 30.0)
  end
  begin
     id 16
     name head
     direction 0.0139214 0.996594 -0.0812836  
     length 1.72777  
     axis 0 0 0   XYZ
    dof rx ry rz
    limits (-20.0 45.0)
           (-30.0 30.0)
           (-30.0 30.0)
  end
  begin
     id 17 
     name lclavicle
     direction 0.841247 0.537205 -0.0609508  
     length 3.55371  
     axis 0 0 0   XYZ
    dof ry rz
    limits (-20.0 10.0)
           (0.0 20.0)
  end
  begin
     id 18 
     name lhumerus
     direction 1 -4.48964e-011 1.60116e-018   
     length 4.91377   
     axis -180 -30 -90   XYZ
    dof rx ry rz
    limits (-60.0 90.0)
           (-90.0 90.0)
           (-90.0 90.0)
  end
  begin
     id 19
     name lradius
     direction 1 -4.48989e-011 -8.93847e-027   
     length 3.00291   
     axis -180 -30 -90   XYZ
    dof rx
    limits (-10.0 170.0)
  end
  begin
     id 20
     name lwrist
     direction 1 -4.48932e-011 -7.31504e-027   
     length 1.50145   
     axis 5.74121e-015 90 90   XYZ
    dof ry
    limits (-180.0 0.0)
 end
  begin
     id 21 
     name lhand
     direction 1 -4.48971e-011 -1.46301e-026   
     length 0.450922   
     axis 9.33524e-015 90 90   XYZ
    dof rx rz
    limits (-90.0 90.0)
           (-45.0 45.0)
  end
  begin
     id 22 
     name lfingers
     direction 1 -4.49039e-011 -2.92602e-026   
     length 0.363545   
     axis 1.86705e-014 90 90   XYZ
    dof rx
    limits (0.0 90.0)
  end
  begin
     id 23
     name lthumb
     direction 0.707107 -6.34941e-011 0.707107   
     length 0.52198   
     axis -90 45 2.85299e-015   XYZ
    dof rx rz
    limits (-45.0 45.0)
           (-45.0 45.0)
  end
  begin
     id 24 
     name rclavicle
     direction -0.825079 0.56158 -0.0622297   
     length 3.39909  
     axis 0 0 0   XYZ 
    dof ry rz
    limits (-10.0 20.0)
           (-20.0 0.0)
  end
  begin
     id 25 
     name rhumerus
     direction -1 -4.48965e-011 1.61691e-027  
     length 4.86725   
     axis -180 30 90   XYZ
    dof rx ry rz
    limits (-90.0 60.0)
           (-90.0 90.0)
           (-90.0 90.0)
  end
  begin
     id 26 
     name rradius
     direction -1 -4.48964e-011 -2.25776e-027   
     length 3.17144   
     axis -180 30 90   XYZ
    dof rx
    limits (-10.0 170.0)
  end
  begin
     id 27 
     name rwrist
     direction -1 -4.48961e-011 -7.31504e-027   
     length 1.58572   
     axis 5.74121e-015 -90 -90   XYZ
    dof ry
    limits (-180.0 0.0)
  end
  begin
     id 28
     name rhand
     direction -1 -4.49013e-011 -1.46301e-026   
     length 0.419368   
     axis 9.33524e-015 -90 -90   XYZ
    dof rx rz
    limits (-90.0 90.0)
           (-45.0 45.0)
  end
  begin
     id 29
     name rfingers
     direction -1 -4.489e-011 -2.92602e-026   
     length 0.338105   
     axis 1.86705e-014 -90 -90   XYZ
    dof rx
    limits (0.0 90.0)
  end
  begin
     id 30
     name rthumb
     direction -0.707107 -6.35022e-011 0.707107   
     length 0.485453   
     axis -90 -45 -2.85299e-015   XYZ
    dof rx rz
    limits (-45.0 45.0)
           (-45.0 45.0)
  end
:hierarchy
  begin
    root lhipjoint rhipjoint lowerback
    lhipjoint lfemur
    lfemur ltibia
    ltibia lfoot
    lfoot ltoes
    rhipjoint rfemur
    rfemur rtibia
    rtibia rfoot
    rfoot rtoes
    lowerback upperback
    upperback thorax
    thorax lowerneck lclavicle rclavicle
    lowerneck upperneck
    upperneck head
    lclavicle lhumerus
    lhumerus lradius
    lradius lwrist
    lwrist lhand lthumb
    lhand lfingers
    rclavicle rhumerus
    rhumerus rradius
    rradius rwrist
    rwrist rhand rthumb
    rhand rfingers
  end

#!OML:ASF H:\Swim 2\Project 1\Capture day 1\Session 1\male.ASF
:FULLY-SPECIFIED
:DEGREES
572
root 8.05626 9.83065 11.8908 93.8106 -0.705213 -1.5864
lowerback -1.57885 -9.96077 1.47995
upperback -5.83489 -13.7999 -1.94824
thorax -6.05816 -7.11932 -2.20171
lowerneck -23.372 5.12063 -4.56538
upperneck 33.2187 9.51599 -0.882596
head 15.4416 3.07461 2.22142
rclavicle 9.54166e-015 0
rhumerus -47.0579 26.5875 -55.2227
rradius 32.3466
rwrist -16.6231
rhand -3.7697 7.28461
rfingers 7.12502
rthumb 21.9751 -21.4871
lclavicle 9.54166e-015 0
lhumerus 68.7521 21.869 5.25508
lradius 32.0046
lwrist 15.66
lhand -36.8114 -4.23176
lfingers 7.12502
lthumb -9.89272 25.5158
rfemur -27.1442 6.1556 23.3178
rtibia 23.5101
rfoot 37.946 1.79858
rtoes 21.9745
lfemur -28.2431 -8.33346 -18.5255
ltibia 38.0597
lfoot 19.8617 5.73608
ltoes 36.3002
573
root 8.04869 9.82891 11.8657 93.7861 -0.575345 -1.53407
lowerback -1.53788 -10.0515 1.49328
upperback -5.85257 -13.9266 -1.94368
thorax -6.11091 -7.18326 -2.18523
lowerneck -23.1747 5.16545 -4.48606
upperneck 33.0053 9.43035 -0.648385
head 15.2816 3.10137 2.27403
rclavicle 2.3218e-013 4.85035e-014
rhumerus -45.7366 25.5267 -52.208
rradius 31.4082
rwrist -16.8246
rhand -3.34014 6.82985
rfingers 7.12502
rthumb 22.3875 -21.8929
lclavicle 2.3218e-013 4.85035e-014
lhumerus 68.6349 21.9931 5.29983
lradius 31.9515
lwrist 15.2775
lhand -36.6634 -4.34822
lfingers 7.12502
lthumb -9.74987 25.4061
rfemur -26.5088 6.19796 23.5042
rtibia 24.3192
rfoot 38.4095 2.31532
rtoes 22.5515
lfemur -29.1561 -8.70924 -18.1527
ltibia 37.5504
lfoot 19.1626 6.80686
ltoes 36.6571
574
root 8.04131 9.82829 11.8446 93.7575 -0.463194 -1.50867
lowerback -1.48173 -10.1325 1.47221
upperback -5.86498 -14.0389 -1.93434
thorax -6.15589 -7.23761 -2.14566
lowerneck -22.9684 5.20617 -4.40043
upperneck 32.7701 9.33801 -0.419002
head 15.112 3.1263 2.32073
rclavicle -1.94014e-013 -6.44062e-014
rhumerus -44.3492 24.387 -49.0857
rradius 30.6054
rwrist -17.084
rhand -2.91833 6.39026
rfingers 7.12502
rthumb 22.7923 -22.2832
lclavicle -1.94014e-013 -6.44062e-014
lhumerus 68.5789 22.1512 5.49433
lradius 31.8933
lwrist 15.0843
lhand -36.595 -4.42588
lfingers 7.12502
lthumb -9.68386 25.3315
rfemur -25.8151 6.2314 23.668
rtibia 25.0807
rfoot 38.887 2.76088
rtoes 23.094
lfemur -30.0257 -9.10584 -17.767
ltibia 36.8973
lfoot 18.4915 7.9483
ltoes 37.0089
575
root 8.03449 9.82923 11.8288 93.7166 -0.370458 -1.52229
lowerback -1.39894 -10.2012 1.41717
upperback -5.87306 -14.1335 -1.91843
thorax -6.19967 -7.2804 -2.07938
lowerneck -22.7449 5.24261 -4.32988
upperneck 32.524 9.23251 -0.15323
head 14.9323 3.1495 2.38051
rclavicle 3.81667e-014 3.33958e-014
rhumerus -42.8928 23.1688 -45.8708
rradius 29.9185
rwrist -17.4739
rhand -2.41745 5.94217
rfingers 7.12502
rthumb 23.273 -22.6713
lclavicle 3.81667e-014 3.33958e-014
lhumerus 68.5914 22.3415 5.86981
lradius 31.8154
lwrist 15.0017
lhand -36.6064 -4.46725
lfingers 7.12502
lthumb -9.69492 25.2896
rfemur -25.0712 6.25788 23.8063
rtibia 25.7882
rfoot 39.3728 3.14613
rtoes 23.5452
lfemur -30.8155 -9.51339 -17.3744
ltibia 36.0941
lfoot 17.8105 9.14571
ltoes 37.1789
576
root 8.02874 9.83201 11.8188 93.6693 -0.292514 -1.58586
lowerback -1.29483 -10.2556 1.34
upperback -5.88055 -14.2076 -1.89168
thorax -6.24481 -7.31099 -1.9888
lowerneck -22.511 5.28083 -4.26605
upperneck 32.2781 9.12957 0.124246
head 14.7511 3.17383 2.44533
rclavicle 9.54166e-014 1.19271e-014
rhumerus -41.3604 21.8678 -42.593
rradius 29.3122
rwrist -17.9631
rhand -1.88057 5.47549
rfingers 7.12502
rthumb 23.7879 -23.0719
lclavicle 9.54166e-014 1.19271e-014
lhumerus 68.6787 22.5624 6.4598
lradius 31.7051
lwrist 14.9409
lhand -36.7057 -4.46278
lfingers 7.12502
lthumb -9.79071 25.2896
rfemur -24.3127 6.26498 23.9244
rtibia 26.4552
rfoot 39.8717 3.51339
rtoes 23.7359
lfemur -31.5168 -9.92285 -16.9742
ltibia 35.1568
lfoot 17.1123 10.3568
ltoes 36.9456
577
root 8.02312 9.83631 11.8135 93.623 -0.23946 -1.72647
lowerback -1.18501 -10.2871 1.21392
upperback -5.88807 -14.2497 -1.85167
thorax -6.27518 -7.32228 -1.86256
lowerneck -22.2762 5.33621 -4.13979
upperneck 32.0413 9.06609 0.299316
head 14.586 3.20528 2.46547
rclavicle -3.18055e-015 -3.97569e-015
rhumerus -39.754 20.4701 -39.2749
rradius 28.7629
rwrist -18.4718
rhand -1.3693 4.99316
rfingers 7.12502
rthumb 24.2782 -23.4896
lclavicle -3.18055e-015 -3.97569e-015
lhumerus 68.8124 22.8069 7.19766
lradius 31.5646
lwrist 14.8876
lhand -36.8784 -4.41003
lfingers 7.12502
lthumb -9.95736 25.3345
rfemur -23.5798 6.2839 24.0098
rtibia 27.0997
rfoot 40.4695 3.85083
rtoes 23.9229
lfemur -32.1258 -10.3149 -16.5772
ltibia 34.1247
lfoot 16.3466 11.5345
ltoes 36.4515
578
root 8.01865 9.8421 11.8116 93.5735 -0.215876 -1.9474
lowerback -1.06617 -10.2939 1.04068
upperback -5.89287 -14.2571 -1.80055
thorax -6.29078 -7.31311 -1.70358
lowerneck -22.0541 5.41419 -3.91632
upperneck 31.8274 9.05932 0.310638
head 14.4515 3.24536 2.41545
rclavicle 2.22639e-014 7.95139e-015
rhumerus -38.089 18.9659 -35.9454
rradius 28.2718
rwrist -18.8683
rhand -1.02141 4.50228
rfingers 7.12502
rthumb 24.6117 -23.9354
lclavicle 2.22639e-014 7.95139e-015
lhumerus 68.9962 23.0711 8.08315
lradius 31.3808
lwrist 14.7682
lhand -37.0935 -4.30199
lfingers 7.12502
lthumb -10.1648 25.4325
rfemur -22.9052 6.30584 24.0545
rtibia 27.7396
rfoot 41.1833 4.22816
rtoes 23.6789
lfemur -32.6451 -10.6943 -16.1968
ltibia 33.0567
lfoot 15.5039 12.6392
ltoes 35.6468
579
root 8.01566 9.84906 11.8113 93.5238 -0.217759 -2.2513
lowerback -0.94511 -10.2716 0.823666
upperback -5.8944 -14.224 -1.73664
thorax -6.28774 -7.28078 -1.51371
lowerneck -21.8602 5.50961 -3.61705
upperneck 31.653 9.10518 0.175827
head 14.3555 3.29168 2.30696
rclavicle 3.18055e-014 -6.36111e-015
rhumerus -36.3837 17.3301 -32.6302
rradius 27.8373
rwrist -19.0492
rhand -0.84034 4.07184
rfingers 7.12502
rthumb 24.7852 -24.3421
lclavicle 3.18055e-014 -6.36111e-015
lhumerus 69.2039 23.3488 9.03955
lradius 31.1562
lwrist 14.6043
lhand -37.3344 -4.13933
lfingers 7.12502
lthumb -10.3972 25.5836
rfemur -22.3176 6.33272 24.0594
rtibia 28.3779
rfoot 42.0326 4.68835
rtoes 23.4879
lfemur -33.0868 -11.0517 -15.8375
ltibia 32.0169
lfoot 14.6216 13.6241
ltoes 34.5914
580
root 8.01498 9.85685 11.8113 93.4694 -0.246348 -2.62714
lowerback -0.814582 -10.2224 0.563465
upperback -5.89032 -14.1534 -1.65996
thorax -6.26868 -7.22685 -1.29171
lowerneck -21.6926 5.60939 -3.29787
upperneck 31.5135 9.17459 -0.0173995
head 14.2866 3.33901 2.17888
rclavicle -7.31528e-014 -2.14687e-014
rhumerus -34.6436 15.4915 -29.3298
rradius 27.4657
rwrist -18.9382
rhand -0.787491 3.72992
rfingers 7.12502
rthumb 24.8359 -24.6771
lclavicle -7.31528e-014 -2.14687e-014
lhumerus 69.4061 23.6307 9.9976
lradius 30.8922
lwrist 14.4208
lhand -37.5778 -3.93793
lfingers 7.12502
lthumb -10.6321 25.7731
rfemur -21.8294 6.38171 24.0159
rtibia 29.0005
rfoot 43.0204 5.22661
rtoes 23.3653
lfemur -33.4559 -11.394 -15.5131
ltibia 31.0653
lfoot 13.7025 14.5085
ltoes 33.5463
581
root 8.0179 9.86535 11.8109 93.3844 -0.28942 -3.05606
lowerback -0.640118 -10.152 0.287257
upperback -5.87757 -14.0534 -1.57545
thorax -6.2589 -7.15631 -1.04826
lowerneck -21.5437 5.70723 -2.9951
upperneck 31.4075 9.2498 -0.207122
head 14.2361 3.3851 2.05809
rclavicle 6.36111e-015 -5.56597e-015
rhumerus -32.8904 13.4102 -26.0759
rradius 27.1685
rwrist -18.5613
rhand -0.836244 3.47347
rfingers 7.12502
rthumb 24.7892 -24.9399
lclavicle 6.36111e-015 -5.56597e-015
lhumerus 69.7067 23.8904 11.1764
lradius 30.5356
lwrist 14.0121
lhand -37.7761 -3.78287
lfingers 7.12502
lthumb -10.8233 25.9183
rfemur -21.4187 6.43596 23.9363
rtibia 29.5748
rfoot 44.0365 5.82481
rtoes 23.4956
lfemur -33.7305 -11.7251 -15.2339
ltibia 30.246
lfoot 12.854 15.3025
ltoes 32.7303
582
root 8.02455 9.87404 11.8094 93.2797 -0.334363 -3.51333
lowerback -0.436915 -10.0696 0.0188663
upperback -5.85938 -13.937 -1.4811
thorax -6.25971 -7.07721 -0.794723
lowerneck -21.4044 5.79995 -2.74074
upperneck 31.3262 9.3203 -0.345279
head 14.1926 3.42945 1.96606
rclavicle 9.54166e-015 -6.36111e-015
rhumerus -31.1309 11.0457 -22.8987
rradius 26.9511
rwrist -18.0268
rhand -0.916338 3.27443
rfingers 7.12502
rthumb 24.7124 -25.1495
lclavicle 9.54166e-015 -6.36111e-015
lhumerus 70.0625 24.1358 12.4963
lradius 30.1077
lwrist 13.4467
lhand -37.9232 -3.70685
lfingers 7.12502
lthumb -10.9652 25.9868
rfemur -21.0946 6.49387 23.8338
rtibia 30.0651
rfoot 44.9932 6.44087
rtoes 23.8688
lfemur -33.9218 -12.0258 -15.0068
ltibia 29.5853
lfoot 12.1002 16.0283
ltoes 32.5069
